<svg height="316.227766" viewBox="0 0 461 461" width="316.227766" xmlns="http://www.w3.org/2000/svg" xmlns:xlink="http://www.w3.org/1999/xlink"><mask id="a" fill="#fff"><path d="m0 0h460.8v460.7232h-460.8z" fill="#fff" fill-rule="evenodd"/></mask><g fill="none" fill-rule="evenodd"><path d="m460.8 230.4c0 127.24608-103.15392 230.4-230.4 230.4-127.24736 0-230.4-103.15392-230.4-230.4 0-127.24736 103.15264-230.4 230.4-230.4 127.24608 0 230.4 103.15264 230.4 230.4" fill="#000" mask="url(#a)"/><g fill="#9ea1a2"><path d="m54.42688 180.73344c-1.07904 3.86048 1.5424 5.99168 5.88928 7.20768 4.3776 1.22368 7.72608.76032 8.80384-3.09888.8704-3.11424-.65152-4.79872-3.13728-5.9136l1.63328-5.83808c5.30304 2.04288 8.12288 6.46784 6.34496 12.82432-2.04928 7.33184-8.27136 9.82272-15.2768 7.86432-6.97472-1.94944-11.00288-7.30752-8.9536-14.63808 1.76896-6.32448 6.47424-8.6464 12.0128-7.6928l-1.632 5.83808c-2.64704-.28416-4.82304.36608-5.68448 3.44704"/><path d="m57.93664 157.41184 17.54368 7.63008 4.27264-9.82016 4.54016 1.97376-6.69056 15.38176-22.08512-9.6064z"/><path d="m90.98752 146.67264c-3.75296 6.23488-7.96416 6.9632-13.10208 3.87072l-13.19168-7.936 3.12704-5.19552 13.1904 7.93728c2.68416 1.61408 4.36096 1.05216 5.73184-1.2288 1.37216-2.28096 1.08672-4.0256-1.59872-5.64096l-13.18912-7.93856 3.12576-5.19424 13.1904 7.936c5.13792 3.09248 6.46912 7.1552 2.71616 13.39008"/><path d="m98.19776 126.52544 2.75968-3.35616c1.60128-1.952 1.94688-3.32544.20352-4.75904-1.74336-1.43232-2.99904-.8064-4.60288 1.14432l-2.7584 3.35616zm-4.608-9.19296c1.0688-1.30176 1.6128-2.5984.0768-3.86048-1.53472-1.26208-2.70208-.47744-3.77088.82304l-2.65216 3.2256 3.69408 3.03744zm4.5184-3.21792.05248.04352c1.94304-1.67424 4.61184-2.26944 7.39712.0192 3.95392 3.24992 3.41376 7.03616.2496 10.8864l-7.6352 9.28896-18.60352-15.29216 7.42144-9.02912c3.1872-3.87584 6.36416-4.6656 9.53856-2.05568 2.28992 1.88288 2.32192 4.17536 1.57952 6.13888z"/><path d="m120.49152 103.1552 3.0976-2.5472c2.912-2.39616 2.37056-5.44-.41088-8.82304s-5.68576-4.52736-8.60032-2.12992l-3.09504 2.5472zm-16.83968-10.92608 8.2496-6.784c5.1776-4.25856 11.03872-3.49696 15.96032 2.48704 4.9216 5.98528 4.77824 11.64288-.39936 15.90144l-8.50816 6.99776z"/><path d="m144.82048 74.11584 2.5664 4.23424-8.98944 5.44512 2.56512 4.23424 10.60224-6.42176 2.5664 4.23552-15.78752 9.56416-12.47872-20.59904 15.61344-9.4592 2.56512 4.23552-10.42816 6.3168 2.21696 3.65952z"/><path d="m174.42432 62.30016 1.75488 4.63104-9.04064 3.42784 3.15264 8.31616-5.6704 2.14912-8.53888-22.52416 16.75904-6.35136 1.75488 4.63104-11.08736 4.20224 1.87392 4.9472z"/><path d="m197.37728 58.21184c-.9216-4.07424-3.1232-7.09888-7.39456-6.13376-4.30336.97152-4.96 4.64256-4.0384 8.7168.928 4.10624 3.09632 7.13856 7.40096 6.16576 4.27136-.96512 4.96-4.64128 4.032-8.7488m-17.34784 3.91936c-1.59616-7.0656 1.40544-13.19808 8.86272-14.88256 7.392-1.6704 12.80256 2.56384 14.39872 9.62688 1.60384 7.09632-1.46304 13.24416-8.85504 14.91456-7.45856 1.68576-12.80256-2.56384-14.4064-9.65888"/><path d="m224.89856 55.19488c-.26624-4.17024-1.9648-7.50464-6.336-7.2256-4.40448.2816-5.63072 3.80416-5.36448 7.97312.2688 4.20224 1.9328 7.5392 6.33856 7.2576 4.36992-.27904 5.63072-3.80288 5.36192-8.00512m-17.75232 1.13408c-.46208-7.22944 3.4688-12.81408 11.10016-13.30176 7.56608-.48256 12.24192 4.5504 12.704 11.77984.46336 7.26272-3.53408 12.8512-11.09888 13.33504-7.63136.48896-12.24192-4.5504-12.70528-11.81312"/><path d="m241.52064 48.448-6.98624-.5376.38016-4.93568 19.98208 1.53472-.38016 4.93568-6.95168-.53376-1.4656 19.07328-6.04544-.46464z"/><path d="m270.53568 47.07072 7.12064 2.05696.49536 16.13312.064.01792 9.02144-13.38496 7.12064 2.05568-6.68416 23.1424-5.50144-1.58848 4.15872-14.40256-.064-.0192-8.46464 13.15968-4.07808-1.17632-.14464-15.64672-.064-.0192-4.16 14.40256-5.50272-1.58848z"/><path d="m311.75168 75.09248c1.81632-3.76064 1.97632-7.49824-1.96608-9.40288-3.9744-1.91872-6.77248.54528-8.5888 4.30592-1.83168 3.79136-2.02112 7.51488 1.952 9.4336 3.9424 1.90336 6.7712-.54528 8.60288-4.33664m-16.01408-7.73376c3.15008-6.5216 9.31456-9.45152 16.19968-6.12736 6.82368 3.296 8.4224 9.9776 5.2736 16.4992-3.16416 6.55104-9.39136 9.4528-16.21632 6.15808-6.88384-3.32672-8.4224-9.97888-5.25696-16.52992"/><path d="m328.3264 70.46656 4.98688 3.45088-1.21984 16.56832.05632.0384 8.14592-11.77728 4.98816 3.45088-13.70624 19.81056-4.98816-3.4496 1.22112-16.56832-.05504-.0384-8.1472 11.776-4.98688-3.45088z"/><path d="m351.6992 94.32064-5.152-4.75008 3.35616-3.64032 14.73408 13.58848-3.35616 3.64032-5.1264-4.72832-12.97152 14.06592-4.45696-4.11008z"/><path d="m364.25088 115.328 2.61888 3.16928c1.54496 1.87008 3.03616 2.29888 4.5952 1.0112 1.55776-1.2864 1.41568-2.83136-.128-4.70144l-2.61632-3.17056zm4.42624-11.52128 7.23072 8.7552c3.4112 4.13056 3.57504 8.19072.06784 11.08736-2.46784 2.03776-5.2288 1.87008-7.65696-.0128l-.05248.04352c3.03488 5.31456-5.5552 9.56928-4.9856 10.89152l-.26112.21504-4.01024-4.8576c.02688-1.55264 7.1104-4.5632 3.8272-8.5376l-2.40384-2.90944-6.46784 5.34272-3.86048-4.67584z"/><path d="m399.01696 133.78176-5.83424-.49024-2.11456-3.44576 4.77696-1.23136zm-12.83328 10.12992-4.22144 2.59072-5.4976-8.95872-4.22016 2.59072 6.48448 10.56512-4.22144 2.58944-9.65504-15.73376 20.52864-12.59776 9.55008 15.56224-4.22016 2.58944-6.37824-10.3936-3.648 2.23744z"/><path d="m390.17728 164.49664 7.08352-6.0288-.0256-.06272-9.248 1.01888zm-6.97344-4.512-5.2224.56704-2.40384-5.56672 25.57184-1.536 2.40384 5.568-18.67008 17.52576-2.40256-5.568 3.9936-3.4112z"/><path d="m410.26944 178.25152-18.43072 5.14304 2.87744 10.31936-4.76928 1.32992-4.50816-16.16 23.20128-6.47296z"/><path d="m406.3744 280.06784c1.07904-3.86048-1.5424-5.99168-5.888-7.2064-4.37888-1.22496-7.72608-.7616-8.80512 3.09888-.8704 3.11296.6528 4.79744 3.13728 5.9136l-1.632 5.8368c-5.30432-2.0416-8.12416-6.46656-6.34624-12.82432 2.04928-7.33184 8.27264-9.824 15.27808-7.86432 6.97472 1.94944 11.0016 7.30624 8.95232 14.63808-1.76896 6.32448-6.47424 8.6464-12.0128 7.6928l1.632-5.83936c2.64704.28672 4.82432-.3648 5.68448-3.44576"/><path d="m402.86464 303.38816-17.5424-7.6288-4.27264 9.82016-4.54144-1.97376 6.69056-15.38176 22.08512 9.6064z"/><path d="m369.81376 314.12864c3.75296-6.23488 7.96416-6.9632 13.10208-3.87072l13.19168 7.936-3.12704 5.19552-13.19168-7.93728c-2.68288-1.61408-4.35968-1.05088-5.73184 1.2288-1.37216 2.28096-1.08544 4.0256 1.59872 5.64096l13.1904 7.93856-3.12576 5.19424-13.1904-7.93728c-5.1392-3.0912-6.46912-7.1552-2.71616-13.3888"/><path d="m367.21152 343.4688c-1.0688 1.30176-1.6128 2.5984-.0768 3.86048 1.53472 1.26208 2.70336.47872 3.77216-.82304l2.65216-3.2256-3.69536-3.03872zm-4.60672-9.19296-2.75968 3.35616c-1.60384 1.95072-1.94816 3.32544-.20352 4.75776 1.74208 1.43232 2.99776.80896 4.60032-1.14304l2.76096-3.35616zm.08832 12.41088-.05248-.04352c-1.94176 1.67424-4.61184 2.26944-7.39584-.0192-3.9552-3.24992-3.41504-7.03616-.2496-10.88768l7.63392-9.28768 18.6048 15.29088-7.42144 9.02912c-3.1872 3.87584-6.36416 4.6656-9.53856 2.05696-2.28992-1.8816-2.3232-4.17664-1.5808-6.13888z"/><path d="m340.30976 357.6448-3.09632 2.5472c-2.91328 2.39616-2.37184 5.44128.41088 8.82432 2.78016 3.38304 5.68576 4.52736 8.59904 2.12992l3.09504-2.5472zm16.8384 10.92736-8.24832 6.784c-5.1776 4.25856-11.03872 3.49696-15.96032-2.48704-4.92032-5.98528-4.77824-11.64288.39936-15.90144l8.50816-6.99904z"/><path d="m315.9808 386.68544-2.56512-4.23552 8.98816-5.44384-2.56384-4.23424-10.60224 6.42048-2.5664-4.23424 15.78752-9.56416 12.47872 20.59904-15.61472 9.45792-2.56384-4.23424 10.42688-6.31808-2.21568-3.65824z"/><path d="m286.37568 398.49984-1.75488-4.62976 9.04192-3.42784-3.15264-8.31616 5.6704-2.1504 8.53888 22.52416-16.75904 6.35264-1.75488-4.63104 11.08736-4.20224-1.87392-4.9472z"/><path d="m263.424 402.58816c.92032 4.07552 3.12192 7.09888 7.39328 6.13504 4.30336-.97152 4.96-4.64256 4.0384-8.7168-.92672-4.10624-3.09632-7.13856-7.40096-6.16576-4.27136.96384-4.96 4.64128-4.03072 8.74752m17.34784-3.9168c1.59488 7.06304-1.40544 13.1968-8.864 14.88128-7.392 1.6704-12.80256-2.56384-14.39744-9.62816-1.60384-7.09632 1.46176-13.24288 8.85504-14.91456 7.45728-1.68448 12.80256 2.56384 14.4064 9.66144"/><path d="m235.90272 405.6064c.26624 4.17024 1.96352 7.50464 6.336 7.22432 4.4032-.28032 5.63072-3.80288 5.3632-7.97184-.2688-4.20224-1.93152-7.5392-6.33728-7.2576-4.3712.27904-5.63072 3.80288-5.36192 8.00512m17.75232-1.13408c.46208 7.22944-3.4688 12.81408-11.10144 13.30176-7.5648.48256-12.24064-4.55168-12.70272-11.77984-.46464-7.26272 3.5328-12.8512 11.09888-13.33504 7.63136-.48896 12.24192 4.5504 12.70528 11.81312"/><path d="m219.27936 412.35328 6.98496.53632-.37888 4.93696-19.9808-1.53472.37888-4.93696 6.95168.53376 1.4656-19.072 6.04544.46464z"/><path d="m190.26432 413.73056-7.12064-2.05696-.49536-16.13184-.064-.0192-9.02144 13.38496-7.12064-2.05568 6.68416-23.14368 5.50144 1.58976-4.15872 14.40384.064.01792 8.46464-13.15968 4.07808 1.1776.14464 15.64672.06528.01792 4.15872-14.40256 5.50272 1.58848z"/><path d="m149.05088 385.70752c-1.81632 3.76064-1.97632 7.49824 1.96608 9.40416 3.97312 1.91872 6.7712-.54528 8.5888-4.30592 1.83168-3.79136 2.02112-7.51616-1.95328-9.4336-3.94112-1.90464-6.7712.54528-8.6016 4.33536m16.01408 7.73376c-3.15008 6.52288-9.31584 9.45408-16.20096 6.12736-6.82368-3.29472-8.4224-9.97632-5.2736-16.49792 3.16416-6.55104 9.39264-9.4528 16.21632-6.1568 6.88512 3.32544 8.4224 9.9776 5.25824 16.52736"/><path d="m132.47488 390.33344-4.9856-3.4496 1.21856-16.56704-.05504-.03968-8.1472 11.77728-4.98688-3.45216 13.70496-19.80928 4.98816 3.4496-1.21984 16.56704.05504.03968 8.1472-11.776 4.9856 3.45088z"/><path d="m109.10336 366.48064 5.152 4.75008-3.35744 3.64032-14.73408-13.58848 3.35744-3.64032 5.12512 4.72832 12.97152-14.06592 4.45824 4.11008z"/><path d="m96.54912 345.47328-2.6176-3.16928c-1.54496-1.87008-3.03616-2.29888-4.5952-1.0112-1.55776 1.2864-1.41696 2.83136.128 4.70272l2.61632 3.168zm-4.42496 11.52-7.23072-8.75392c-3.4112-4.13056-3.57504-8.19072-.06912-11.08736 2.46912-2.03776 5.2288-1.87008 7.65824.01152l.0512-.04224c-3.03488-5.31456 5.55648-9.57056 4.98688-10.8928l.26112-.21376 4.01152 4.8576c-.02816 1.55264-7.11168 4.5632-3.82848 8.5376l2.40256 2.90944 6.46784-5.34272 3.86176 4.67584z"/><path d="m74.62528 316.89728 4.2176-2.58944 5.4976 8.95232 4.2176-2.58944-6.4832-10.56128 4.21888-2.58944 9.65504 15.7248-20.5184 12.59904-9.55008-15.55328 4.21888-2.59072 6.37824 10.38848 3.64544-2.23872zm-12.82816 10.12864 5.83296.48896 2.11328 3.44448-4.77568 1.23136z"/><path d="m70.62272 296.30336-7.08352 6.03008.02688.06272 9.24672-1.02016zm6.97472 4.51328 5.2224-.56832 2.40384 5.568-25.57312 1.53472-2.40256-5.56672 18.67008-17.52576 2.40256 5.568-3.9936 3.4112z"/><path d="m50.53056 282.54976 18.432-5.14176-2.87872-10.32064 4.76928-1.32992 4.50944 16.16-23.20128 6.47296z"/><path d="m190.28224 130.54976v-.00128z"/><path d="m414.83008 226.99264c-.45696 0-.89088.08704-1.2864.24576-3.01056 1.09056-5.00608 4.70528-5.12 10.04928h-1.57952c0-4.89344.82688-6.43584 3.04896-12.57088 1.12768-2.8608.45056-6.43584-1.54496-9.74848-.71424-1.16608-1.61664-2.25792-2.63424-3.38688-1.01504 1.12896-1.91744 2.2208-2.63424 3.38688-1.99296 3.27424-2.67136 6.85056-1.54368 9.74848 2.18368 6.13504 3.05024 7.67744 3.05024 12.57088h-1.58208c-.07552-5.3824-2.10688-8.95872-5.11616-10.04928-.4096-.15872-.84736-.24576-1.30432-.24576-1.06112 0-2.22208.46848-3.32672 1.6-1.95712 1.99552-2.5216 7.52768 3.19872 8.58112-.64-.9024-.56448-2.89792.64-3.57504.384-.192.79744-.27648 1.18144-.27648.5184 0 .9856.15104 1.26464.38912.79104.49024 1.54496 1.99552 1.54496 3.5392h-2.71232v3.0464h5.64736c-.07552 1.54496-.94208 2.82368-2.52288 3.5008.22016.6592 1.11616 1.92384 2.37568 1.92384.03712 0 .07296-.00128.1088-.00384.2624 1.42976.52608 2.21952 1.69344 3.49952 1.20448-1.28 1.43104-2.06976 1.69472-3.49952.03456.00256.06912.00384.10496.00384 1.26336 0 2.1952-1.30176 2.37824-1.92384-1.5808-.67712-2.44608-1.95584-2.5216-3.5008h5.64608v-3.0464h-2.71104c0-1.54368.75264-3.04896 1.54368-3.5392.288-.22144.75392-.37632 1.28384-.37632.37248 0 .7744.0768 1.16352.26368 1.2032.71552 1.24032 2.67264.64 3.57504h.07296c5.7216-1.05344 5.1584-6.5856 3.2-8.58112-1.10592-1.13152-2.28352-1.6-3.34208-1.6"/><path d="m64.19968 226.99264c-.45568 0-.89088.08704-1.2864.24576-3.01056 1.09056-5.0048 4.704-5.11744 10.048h-1.57952c0-4.89088.82688-6.43456 3.04768-12.56832 1.12768-2.86208.45184-6.43584-1.54368-9.74848-.71424-1.16608-1.61792-2.25792-2.63424-3.3856-1.01632 1.12768-1.91872 2.21952-2.63552 3.3856-1.99296 3.27424-2.67008 6.84928-1.54112 9.74848 2.18112 6.13376 3.04768 7.67744 3.04768 12.56832h-1.5808c-.07552-5.38112-2.10688-8.95744-5.11872-10.048-.40704-.15872-.8448-.24576-1.30176-.24576-1.06112 0-2.22208.46976-3.32672 1.6-1.95712 1.99552-2.5216 7.5264 3.19872 8.58112-.64-.90368-.56448-2.89792.64-3.57504.38528-.192.79744-.27648 1.18144-.27648.51712 0 .98432.15104 1.26464.38912.79104.48896 1.54368 1.99552 1.54368 3.53792h-2.70976v3.0464h5.6448c-.07552 1.54496-.94208 2.82496-2.52032 3.5008.2176.6592 1.11488 1.92256 2.3744 1.92256.03584 0 .07296 0 .1088-.00256.2624 1.42848.52608 2.21952 1.69216 3.49952 1.20576-1.28 1.43104-2.07104 1.69472-3.49952.03456.00256.0704.00256.10496.00256 1.26336 0 2.1952-1.30048 2.37824-1.92256-1.5808-.67584-2.44608-1.95584-2.52032-3.5008h5.64352v-3.0464h-2.70976c0-1.5424.75264-3.04896 1.5424-3.53792.288-.22144.75648-.37632 1.28512-.37632.37248 0 .77312.07808 1.16224.26368 1.2032.71552 1.2416 2.67136.64 3.57504h.07552c5.72032-1.05472 5.15456-6.5856 3.19744-8.58112-1.10464-1.13024-2.28352-1.6-3.34208-1.6"/></g><path d="m230.4 21.56672c-115.15008 0-208.832 93.68192-208.832 208.832 0 115.15136 93.68192 208.832 208.832 208.832 115.15136 0 208.832-93.68064 208.832-208.832 0-115.15008-93.68064-208.832-208.832-208.832m0 429.50144c-121.67808 0-220.66944-98.99136-220.66944-220.66944 0-121.6768 98.99136-220.66816 220.66944-220.66816 121.67936 0 220.66816 98.99136 220.66816 220.66816 0 121.67808-98.9888 220.66944-220.66816 220.66944" fill="#0033a1"/><path d="m206.15168 158.05056 24.24832 24.24576 24.34432-24.34432v38.1824l19.66976-19.66848v-62.4128l-44.01408 44.38016-44.0128-43.75296v61.7856l19.76448 19.76576z" fill="#9ea1a2"/><path d="m264.61184 107.5072-9.89696-9.8944-17.31584 17.31584v-28.1728h-13.9968v28.1728l-17.31712-17.31584-9.89568 9.8944 34.21056 34.21184z" fill="#9ea1a2"/><path d="m334.84672 300.46848v-13.99424h-48.38016v48.38016h13.99424v-24.48768l26.72128 26.72256 9.89696-9.89824-26.72-26.72256z" fill="#9ea1a2"/><path d="m150.44352 160.34816h-24.49024v13.99424h48.38144v-48.38016h-13.99552v24.4864l-26.80832-26.80576-9.89312 9.89696 26.08768 26.08768z" fill="#9ea1a2"/><path d="m334.84928 160.26368h-24.49024l26.72128-26.72384-9.89568-9.89568-26.72256 26.72128v-24.48768h-13.99424v48.38016h48.38144z" fill="#9ea1a2"/><path d="m125.95584 300.38528h24.4864l-26.80576 26.80704 9.89696 9.89568 26.0864-26.08896.72064-.71808v24.48896h13.99552v-48.38144h-48.38016z" fill="#9ea1a2"/><path d="m254.64832 302.74944-24.24704-24.24704-24.2624 24.26112v-38.1824l-19.75168 19.75168v62.41408l44.01408-44.38144 44.0128 43.75424v-61.78688l-19.76576-19.76576z" fill="#9ea1a2"/><path d="m196.18944 353.2928 9.89568 9.89312 17.31712-17.31456v28.1728h13.9968v-28.1728l17.31584 17.31456 9.89696-9.89312-34.21056-34.21184z" fill="#9ea1a2"/><path d="m346.11968 186.38592h-61.7856l-19.76576 19.76576h38.18112l-24.24704 24.24704 23.86432 23.86304h-38.1824l20.14976 20.15232h62.4128l-44.38016-44.01536z" fill="#9ea1a2"/><path d="m374.04544 223.40096h-28.1728l17.31456-17.31456-9.89312-9.89824-34.21312 34.21056 34.21312 34.21184 9.89312-9.89696-17.31456-17.31456h28.1728z" fill="#9ea1a2"/><path d="m158.05056 254.64832 24.24704-24.24704-23.86304-23.86304h38.1824l-20.14976-20.15232h-62.41408l44.38144 44.01536-43.75424 44.0128h61.78688l19.76576-19.76576z" fill="#9ea1a2"/><path d="m107.50848 196.18816-9.8944 9.89696 17.31456 17.31584h-28.1728v13.99808h28.1728l-17.31456 17.31456 9.8944 9.89696 34.21184-34.20928z" fill="#9ea1a2"/></g></svg>